<mxfile host="app.diagrams.net" agent="Mozilla/5.0 (Windows NT 10.0; Win64; x64) AppleWebKit/537.36 (KHTML, like Gecko) Chrome/129.0.0.0 Safari/537.36" version="24.7.17">
  <diagram name="Page-1" id="d1PKIkYEkd7kQRkjOmom">
    <mxGraphModel dx="954" dy="592" grid="1" gridSize="10" guides="1" tooltips="1" connect="1" arrows="1" fold="1" page="1" pageScale="1" pageWidth="850" pageHeight="1100" math="0" shadow="0">
      <root>
        <mxCell id="0" />
        <mxCell id="1" parent="0" />
        <mxCell id="7m66Wvu4ITBquXtRZde9-1" value="Barang" style="rounded=0;whiteSpace=wrap;html=1;" vertex="1" parent="1">
          <mxGeometry x="180" y="420" width="120" height="60" as="geometry" />
        </mxCell>
        <mxCell id="7m66Wvu4ITBquXtRZde9-2" value="Jenis Barang" style="rounded=0;whiteSpace=wrap;html=1;" vertex="1" parent="1">
          <mxGeometry x="530" y="420" width="120" height="60" as="geometry" />
        </mxCell>
        <mxCell id="7m66Wvu4ITBquXtRZde9-3" value="Deskripsi" style="ellipse;whiteSpace=wrap;html=1;" vertex="1" parent="1">
          <mxGeometry x="40" y="330" width="110" height="50" as="geometry" />
        </mxCell>
        <mxCell id="7m66Wvu4ITBquXtRZde9-4" value="nama_barang" style="ellipse;whiteSpace=wrap;html=1;" vertex="1" parent="1">
          <mxGeometry x="130" y="250" width="110" height="50" as="geometry" />
        </mxCell>
        <mxCell id="7m66Wvu4ITBquXtRZde9-5" value="Berat" style="ellipse;whiteSpace=wrap;html=1;" vertex="1" parent="1">
          <mxGeometry x="130" y="580" width="110" height="50" as="geometry" />
        </mxCell>
        <mxCell id="7m66Wvu4ITBquXtRZde9-6" value="harga" style="ellipse;whiteSpace=wrap;html=1;" vertex="1" parent="1">
          <mxGeometry x="40" y="500" width="110" height="50" as="geometry" />
        </mxCell>
        <mxCell id="7m66Wvu4ITBquXtRZde9-13" value="" style="endArrow=none;html=1;rounded=0;entryX=0;entryY=0;entryDx=0;entryDy=0;" edge="1" parent="1" source="7m66Wvu4ITBquXtRZde9-3" target="7m66Wvu4ITBquXtRZde9-1">
          <mxGeometry width="50" height="50" relative="1" as="geometry">
            <mxPoint x="400" y="490" as="sourcePoint" />
            <mxPoint x="450" y="440" as="targetPoint" />
          </mxGeometry>
        </mxCell>
        <mxCell id="7m66Wvu4ITBquXtRZde9-14" value="" style="endArrow=none;html=1;rounded=0;" edge="1" parent="1" source="7m66Wvu4ITBquXtRZde9-38" target="7m66Wvu4ITBquXtRZde9-1">
          <mxGeometry width="50" height="50" relative="1" as="geometry">
            <mxPoint x="120" y="450" as="sourcePoint" />
            <mxPoint x="450" y="440" as="targetPoint" />
          </mxGeometry>
        </mxCell>
        <mxCell id="7m66Wvu4ITBquXtRZde9-15" value="" style="endArrow=none;html=1;rounded=0;exitX=0.936;exitY=0.3;exitDx=0;exitDy=0;exitPerimeter=0;" edge="1" parent="1" source="7m66Wvu4ITBquXtRZde9-6">
          <mxGeometry width="50" height="50" relative="1" as="geometry">
            <mxPoint x="400" y="490" as="sourcePoint" />
            <mxPoint x="180" y="480" as="targetPoint" />
          </mxGeometry>
        </mxCell>
        <mxCell id="7m66Wvu4ITBquXtRZde9-16" value="" style="endArrow=none;html=1;rounded=0;entryX=0.5;entryY=1;entryDx=0;entryDy=0;exitX=0.727;exitY=0;exitDx=0;exitDy=0;exitPerimeter=0;" edge="1" parent="1" source="7m66Wvu4ITBquXtRZde9-5" target="7m66Wvu4ITBquXtRZde9-1">
          <mxGeometry width="50" height="50" relative="1" as="geometry">
            <mxPoint x="400" y="490" as="sourcePoint" />
            <mxPoint x="450" y="440" as="targetPoint" />
          </mxGeometry>
        </mxCell>
        <mxCell id="7m66Wvu4ITBquXtRZde9-19" value="" style="endArrow=none;html=1;rounded=0;entryX=0.5;entryY=1;entryDx=0;entryDy=0;" edge="1" parent="1" source="7m66Wvu4ITBquXtRZde9-1" target="7m66Wvu4ITBquXtRZde9-4">
          <mxGeometry width="50" height="50" relative="1" as="geometry">
            <mxPoint x="400" y="490" as="sourcePoint" />
            <mxPoint x="450" y="440" as="targetPoint" />
          </mxGeometry>
        </mxCell>
        <mxCell id="7m66Wvu4ITBquXtRZde9-23" value="" style="rhombus;whiteSpace=wrap;html=1;" vertex="1" parent="1">
          <mxGeometry x="400" y="425" width="50" height="50" as="geometry" />
        </mxCell>
        <mxCell id="7m66Wvu4ITBquXtRZde9-24" value="" style="endArrow=none;html=1;rounded=0;entryX=0;entryY=0.5;entryDx=0;entryDy=0;exitX=1;exitY=0.5;exitDx=0;exitDy=0;" edge="1" parent="1" source="7m66Wvu4ITBquXtRZde9-1" target="7m66Wvu4ITBquXtRZde9-23">
          <mxGeometry width="50" height="50" relative="1" as="geometry">
            <mxPoint x="400" y="490" as="sourcePoint" />
            <mxPoint x="450" y="440" as="targetPoint" />
          </mxGeometry>
        </mxCell>
        <mxCell id="7m66Wvu4ITBquXtRZde9-25" value="" style="endArrow=none;html=1;rounded=0;entryX=1;entryY=0.5;entryDx=0;entryDy=0;" edge="1" parent="1" source="7m66Wvu4ITBquXtRZde9-2" target="7m66Wvu4ITBquXtRZde9-23">
          <mxGeometry width="50" height="50" relative="1" as="geometry">
            <mxPoint x="400" y="490" as="sourcePoint" />
            <mxPoint x="450" y="440" as="targetPoint" />
          </mxGeometry>
        </mxCell>
        <mxCell id="7m66Wvu4ITBquXtRZde9-26" value="memiliki" style="text;html=1;align=center;verticalAlign=middle;resizable=0;points=[];autosize=1;strokeColor=none;fillColor=none;" vertex="1" parent="1">
          <mxGeometry x="385" y="388" width="70" height="30" as="geometry" />
        </mxCell>
        <mxCell id="7m66Wvu4ITBquXtRZde9-27" value="dimiliki" style="text;html=1;align=center;verticalAlign=middle;resizable=0;points=[];autosize=1;strokeColor=none;fillColor=none;" vertex="1" parent="1">
          <mxGeometry x="390" y="478" width="60" height="30" as="geometry" />
        </mxCell>
        <mxCell id="7m66Wvu4ITBquXtRZde9-30" value="nama jenis" style="ellipse;whiteSpace=wrap;html=1;" vertex="1" parent="1">
          <mxGeometry x="720" y="400" width="110" height="60" as="geometry" />
        </mxCell>
        <mxCell id="7m66Wvu4ITBquXtRZde9-33" value="" style="endArrow=none;html=1;rounded=0;entryX=0;entryY=1;entryDx=0;entryDy=0;exitX=1;exitY=0.5;exitDx=0;exitDy=0;" edge="1" parent="1" source="7m66Wvu4ITBquXtRZde9-2" target="7m66Wvu4ITBquXtRZde9-30">
          <mxGeometry width="50" height="50" relative="1" as="geometry">
            <mxPoint x="400" y="490" as="sourcePoint" />
            <mxPoint x="450" y="440" as="targetPoint" />
          </mxGeometry>
        </mxCell>
        <mxCell id="7m66Wvu4ITBquXtRZde9-34" value="1" style="text;html=1;align=center;verticalAlign=middle;resizable=0;points=[];autosize=1;strokeColor=none;fillColor=none;" vertex="1" parent="1">
          <mxGeometry x="295" y="418" width="30" height="30" as="geometry" />
        </mxCell>
        <mxCell id="7m66Wvu4ITBquXtRZde9-35" value="1" style="text;html=1;align=center;verticalAlign=middle;resizable=0;points=[];autosize=1;strokeColor=none;fillColor=none;" vertex="1" parent="1">
          <mxGeometry x="505" y="428" width="30" height="30" as="geometry" />
        </mxCell>
        <mxCell id="7m66Wvu4ITBquXtRZde9-36" value="n" style="text;html=1;align=center;verticalAlign=middle;resizable=0;points=[];autosize=1;strokeColor=none;fillColor=none;" vertex="1" parent="1">
          <mxGeometry x="295" y="460" width="30" height="30" as="geometry" />
        </mxCell>
        <mxCell id="7m66Wvu4ITBquXtRZde9-37" value="1" style="text;html=1;align=center;verticalAlign=middle;resizable=0;points=[];autosize=1;strokeColor=none;fillColor=none;" vertex="1" parent="1">
          <mxGeometry x="505" y="458" width="30" height="30" as="geometry" />
        </mxCell>
        <mxCell id="7m66Wvu4ITBquXtRZde9-38" value="id_barang" style="ellipse;whiteSpace=wrap;html=1;align=center;fontStyle=4;" vertex="1" parent="1">
          <mxGeometry x="10" y="430" width="100" height="40" as="geometry" />
        </mxCell>
        <mxCell id="7m66Wvu4ITBquXtRZde9-39" value="merk" style="ellipse;whiteSpace=wrap;html=1;" vertex="1" parent="1">
          <mxGeometry x="710" y="495" width="110" height="60" as="geometry" />
        </mxCell>
        <mxCell id="7m66Wvu4ITBquXtRZde9-40" value="" style="endArrow=none;html=1;rounded=0;exitX=0.055;exitY=0.333;exitDx=0;exitDy=0;exitPerimeter=0;entryX=1;entryY=1;entryDx=0;entryDy=0;" edge="1" parent="1" source="7m66Wvu4ITBquXtRZde9-39" target="7m66Wvu4ITBquXtRZde9-2">
          <mxGeometry width="50" height="50" relative="1" as="geometry">
            <mxPoint x="400" y="490" as="sourcePoint" />
            <mxPoint x="450" y="440" as="targetPoint" />
          </mxGeometry>
        </mxCell>
        <mxCell id="7m66Wvu4ITBquXtRZde9-80" value="Attribute" style="ellipse;whiteSpace=wrap;html=1;align=center;fontStyle=4;" vertex="1" parent="1">
          <mxGeometry x="370" y="530" width="100" height="40" as="geometry" />
        </mxCell>
        <mxCell id="7m66Wvu4ITBquXtRZde9-81" value="id jenis" style="ellipse;whiteSpace=wrap;html=1;align=center;fontStyle=4;" vertex="1" parent="1">
          <mxGeometry x="640" y="348" width="100" height="40" as="geometry" />
        </mxCell>
        <mxCell id="7m66Wvu4ITBquXtRZde9-83" value="" style="endArrow=none;html=1;rounded=0;exitX=0.75;exitY=0;exitDx=0;exitDy=0;" edge="1" parent="1" source="7m66Wvu4ITBquXtRZde9-2" target="7m66Wvu4ITBquXtRZde9-81">
          <mxGeometry width="50" height="50" relative="1" as="geometry">
            <mxPoint x="400" y="580" as="sourcePoint" />
            <mxPoint x="450" y="530" as="targetPoint" />
          </mxGeometry>
        </mxCell>
        <mxCell id="7m66Wvu4ITBquXtRZde9-93" value="Entitas" style="swimlane;childLayout=stackLayout;horizontal=1;startSize=50;horizontalStack=0;rounded=1;fontSize=14;fontStyle=0;strokeWidth=2;resizeParent=0;resizeLast=1;shadow=0;dashed=0;align=center;arcSize=4;whiteSpace=wrap;html=1;" vertex="1" parent="1">
          <mxGeometry x="190" y="730" width="160" height="180" as="geometry" />
        </mxCell>
        <mxCell id="7m66Wvu4ITBquXtRZde9-94" value="&lt;div&gt;nama_barang&lt;/div&gt;&lt;div&gt;deskripsi&lt;/div&gt;&lt;div&gt;harga&lt;/div&gt;&lt;div&gt;&lt;b&gt;&lt;u&gt;id barang&lt;/u&gt;&lt;/b&gt;&lt;/div&gt;" style="align=left;strokeColor=none;fillColor=none;spacingLeft=4;fontSize=12;verticalAlign=top;resizable=0;rotatable=0;part=1;html=1;" vertex="1" parent="7m66Wvu4ITBquXtRZde9-93">
          <mxGeometry y="50" width="160" height="130" as="geometry" />
        </mxCell>
        <mxCell id="7m66Wvu4ITBquXtRZde9-96" value="Atribut" style="swimlane;childLayout=stackLayout;horizontal=1;startSize=50;horizontalStack=0;rounded=1;fontSize=14;fontStyle=0;strokeWidth=2;resizeParent=0;resizeLast=1;shadow=0;dashed=0;align=center;arcSize=4;whiteSpace=wrap;html=1;" vertex="1" parent="1">
          <mxGeometry x="350" y="730" width="160" height="180" as="geometry" />
        </mxCell>
        <mxCell id="7m66Wvu4ITBquXtRZde9-97" value="&lt;div&gt;i&lt;u&gt;d jenis&lt;/u&gt;&lt;/div&gt;&lt;div&gt;&lt;u&gt;merk&lt;/u&gt;&lt;/div&gt;&lt;div&gt;&lt;u&gt;nama jenis barang&lt;/u&gt;&lt;/div&gt;" style="align=left;strokeColor=none;fillColor=none;spacingLeft=4;fontSize=12;verticalAlign=top;resizable=0;rotatable=0;part=1;html=1;" vertex="1" parent="7m66Wvu4ITBquXtRZde9-96">
          <mxGeometry y="50" width="160" height="130" as="geometry" />
        </mxCell>
      </root>
    </mxGraphModel>
  </diagram>
</mxfile>
